<svg width="88" height="88" viewBox="0 0 88 88" fill="none" xmlns="http://www.w3.org/2000/svg">
<circle cx="43.6323" cy="43.6323" r="43.6323" fill="white"/>
<path d="M43.2857 8.40527C23.6588 8.40527 7.71191 24.3521 7.71191 43.979C7.71191 63.6059 23.6588 79.5528 43.2857 79.5528C62.9126 79.5528 78.8594 63.6059 78.8594 43.979C78.8594 24.3521 62.9126 8.40527 43.2857 8.40527Z" fill="#A32CE8"/>
<path d="M40.4231 29L40.9231 48.0577H46.0577L46.5769 29H40.4231ZM43.5 58C45.6731 58 47 56.7203 47 54.6531C47 52.5662 45.6731 51.2865 43.5 51.2865C41.3462 51.2865 40 52.5662 40 54.6531C40 56.7203 41.3462 58 43.5 58Z" fill="#E0AFF2"/>
</svg>
